<?xml version="1.0" encoding="UTF-8" standalone="no"?>
<!DOCTYPE svg PUBLIC "-//W3C//DTD SVG 1.1//EN"
 "http://www.w3.org/Graphics/SVG/1.1/DTD/svg11.dtd">
<!-- Generated by graphviz version 8.0.5 (20230430.1635)
 -->
<!-- Title: G Pages: 1 -->
<svg width="103pt" height="67pt"
 viewBox="0.00 0.00 102.70 66.95" xmlns="http://www.w3.org/2000/svg" xmlns:xlink="http://www.w3.org/1999/xlink">
<g id="graph0" class="graph" transform="scale(1 1) rotate(0) translate(21.6 45.35)">
<title>G</title>
<polygon fill="#111111" stroke="none" points="-21.6,21.6 -21.6,-45.35 81.1,-45.35 81.1,21.6 -21.6,21.6"/>
<!-- main.js -->
<g id="node1" class="node">
<title>main.js</title>
<path fill="none" stroke="#cfffac" d="M51.58,-23.75C51.58,-23.75 7.92,-23.75 7.92,-23.75 3.96,-23.75 0,-19.79 0,-15.83 0,-15.83 0,-7.92 0,-7.92 0,-3.96 3.96,0 7.92,0 7.92,0 51.58,0 51.58,0 55.54,0 59.5,-3.96 59.5,-7.92 59.5,-7.92 59.5,-15.83 59.5,-15.83 59.5,-19.79 55.54,-23.75 51.58,-23.75"/>
<text text-anchor="middle" x="29.75" y="-6.45" font-family="Arial" font-size="14.00" fill="#cfffac">main.js</text>
</g>
</g>
</svg>
